<svg width="18" height="23" viewBox="0 0 18 23" fill="none" xmlns="http://www.w3.org/2000/svg">
<path d="M18 20.2717V12.0984C18 10.6229 16.7963 9.4192 15.3208 9.4192H14.6464V5.64871C14.6464 2.53396 12.1124 0 8.99766 0C5.8829 0 3.35363 2.53864 3.35363 5.64871V6.29977C3.35363 6.74473 3.71429 7.1007 4.15457 7.1007C4.59485 7.1007 4.96019 6.74005 4.96019 6.29977V5.64871C4.96019 3.4192 6.77283 1.60656 9.00234 1.60656C11.2319 1.60656 13.0445 3.4192 13.0445 5.64871V9.4192H2.67916C1.20375 9.4192 0 10.6183 0 12.0984V20.2717C0 21.7471 1.20375 22.9508 2.67916 22.9508H15.3255C16.8009 22.9461 18 21.7471 18 20.2717ZM1.61124 20.2717V12.0984C1.61124 11.5082 2.09368 11.0258 2.68384 11.0258H15.3255C15.9157 11.0258 16.3981 11.5082 16.3981 12.0984V20.2717C16.3981 20.8618 15.9157 21.3443 15.3255 21.3443H2.67916C2.08899 21.3396 1.61124 20.8618 1.61124 20.2717Z" fill="black"/>
<path d="M9.00231 14.3887C8.55734 14.3887 8.19669 14.7493 8.19669 15.1896V17.2645C8.19669 17.7095 8.55734 18.0655 9.00231 18.0655C9.44727 18.0655 9.80324 17.7048 9.80324 17.2645V15.1896C9.80324 14.7493 9.44727 14.3887 9.00231 14.3887Z" fill="black"/>
</svg>
