<svg width="30" height="32" viewBox="0 0 30 32" fill="none" xmlns="http://www.w3.org/2000/svg">
<path opacity="0.3" fill-rule="evenodd" clip-rule="evenodd" d="M29.8635 13.9715C29.8133 13.754 29.6907 13.56 29.5157 13.4213C29.3408 13.2825 29.1238 13.2071 28.9005 13.2077C28.2262 13.2036 27.5689 12.9954 27.0153 12.6104C26.4616 12.2255 26.0375 11.6818 25.7989 11.0511C25.5445 10.391 25.4882 9.67105 25.6369 8.97941C25.7856 8.28776 26.1328 7.65448 26.636 7.15722C26.7924 7.00479 26.8879 6.80054 26.9047 6.58279C26.9216 6.36504 26.8586 6.14863 26.7274 5.97399C26.0364 5.04651 25.2403 4.20228 24.355 3.458C24.2744 3.38915 24.181 3.33681 24.0801 3.30406C23.9793 3.27131 23.873 3.25879 23.7673 3.26713C23.6616 3.27547 23.5586 3.30453 23.4641 3.35269C23.3697 3.40086 23.2857 3.46711 23.2169 3.54776C22.7618 4.0629 22.1584 4.42449 21.4896 4.58272C20.8207 4.74095 20.1192 4.688 19.4816 4.43134C18.8386 4.13373 18.301 3.64795 17.94 3.03824C17.579 2.42852 17.4115 1.72371 17.4598 1.01677C17.4753 0.799767 17.408 0.584948 17.2716 0.415471C17.1352 0.245994 16.9397 0.134258 16.7244 0.103028C15.6053 -0.0292566 14.4748 -0.0341128 13.3546 0.0882194C13.1407 0.118812 12.9458 0.227554 12.8075 0.393532C12.6692 0.559511 12.5973 0.770901 12.6058 0.98679C12.6403 1.68718 12.4632 2.38175 12.0975 2.9801C11.7318 3.57845 11.1945 4.05285 10.5554 4.34158C9.92098 4.59016 9.22569 4.63865 8.56284 4.4807C7.9 4.32276 7.30131 3.96598 6.84715 3.458C6.70798 3.29845 6.51192 3.19964 6.30088 3.18285C6.08983 3.16605 5.8806 3.23252 5.71795 3.36805C4.81527 4.10423 4.00201 4.94373 3.29473 5.86924C3.16109 6.04558 3.09646 6.26452 3.11301 6.48516C3.12956 6.70581 3.22614 6.91284 3.38459 7.06727C3.89671 7.56511 4.24958 8.20376 4.39861 8.90226C4.54764 9.60075 4.48607 10.3277 4.22173 10.9912C3.9562 11.6329 3.50298 12.1794 2.92141 12.5589C2.33984 12.9384 1.65712 13.1333 0.962837 13.1179C0.744994 13.1073 0.531721 13.1832 0.369579 13.3291C0.207437 13.475 0.109559 13.679 0.0971744 13.8968C-0.0323915 15.0864 -0.0323915 16.2866 0.0971744 17.4762C0.15061 17.6958 0.276742 17.8908 0.45514 18.0295C0.633538 18.1682 0.853704 18.2424 1.07966 18.2401C1.7522 18.2409 2.40821 18.448 2.95916 18.8337C3.51012 19.2194 3.92947 19.765 4.1604 20.3966C4.41631 21.0566 4.47335 21.777 4.32457 22.4689C4.17579 23.1609 3.82769 23.7942 3.32316 24.2906C3.16675 24.443 3.07123 24.6472 3.05441 24.865C3.0376 25.0828 3.10069 25.2992 3.23184 25.4738C3.92322 26.4 4.71811 27.2441 5.60112 27.9898C5.76579 28.1252 5.97653 28.1916 6.18908 28.1748C6.40163 28.1581 6.59943 28.0596 6.74084 27.9C7.19378 27.3824 7.797 27.0191 8.46631 26.8607C9.13562 26.7023 9.83772 26.7568 10.4746 27.0165C11.1185 27.3134 11.657 27.7989 12.0188 28.4086C12.3807 29.0184 12.5488 29.7236 12.5009 30.431C12.4879 30.6475 12.556 30.8612 12.692 31.0301C12.8279 31.1991 13.0221 31.3112 13.2363 31.3448C13.8085 31.4172 14.3848 31.4521 14.9616 31.4495C15.512 31.4496 16.0619 31.4195 16.609 31.3596C16.825 31.3275 17.0214 31.2162 17.1598 31.0473C17.2982 30.8784 17.3688 30.6641 17.3579 30.446C17.3269 29.7464 17.5053 29.0536 17.8703 28.456C18.2353 27.8584 18.7703 27.3832 19.4068 27.0912C20.0427 26.8448 20.7388 26.799 21.4016 26.9596C22.0645 27.1202 22.6624 27.4796 23.115 27.9898C23.2545 28.1494 23.4507 28.2483 23.662 28.2651C23.8733 28.2819 24.0828 28.2154 24.2457 28.0797C25.1504 27.3401 25.9639 26.4954 26.669 25.5636C26.8022 25.3898 26.8667 25.1732 26.8501 24.9549C26.8335 24.7367 26.7371 24.5321 26.5791 24.3805C26.0673 23.8825 25.7144 23.2439 25.5651 22.5455C25.4158 21.8472 25.4769 21.1203 25.7404 20.4566C25.9796 19.8352 26.3988 19.2994 26.9445 18.9178C27.4902 18.5362 28.1374 18.3262 28.8032 18.3148L28.9889 18.3298C29.2067 18.336 29.4185 18.2588 29.5814 18.1141C29.7442 17.9694 29.8456 17.768 29.865 17.551C29.9933 16.3613 29.9929 15.1612 29.8635 13.9715ZM15.005 20.9958C13.9592 21.0451 12.9225 20.7802 12.0286 20.235C11.1347 19.6899 10.4246 18.8894 9.98968 17.937C9.55478 16.9845 9.41499 15.9237 9.58848 14.8911C9.76196 13.8586 10.2407 12.9017 10.963 12.1437C11.6853 11.3857 12.618 10.8613 13.641 10.6382C14.664 10.415 15.7303 10.5035 16.7026 10.8919C17.6749 11.2803 18.5087 11.951 19.0963 12.8176C19.684 13.6841 19.9987 14.7069 19.9998 15.7539C20.0304 17.1107 19.5218 18.4243 18.5856 19.4068C17.6494 20.3894 16.3618 20.9608 15.005 20.9958Z" fill="white"/>
</svg>
